<?xml version="1.0" encoding="iso-8859-1"?>
<!-- Generator: Adobe Illustrator 19.0.0, SVG Export Plug-In . SVG Version: 6.00 Build 0)  -->
<svg xmlns="http://www.w3.org/2000/svg" xmlns:xlink="http://www.w3.org/1999/xlink" version="1.1" id="Layer_1" x="0px" y="0px" viewBox="0 0 486.576 486.576" style="enable-background:new 0 0 486.576 486.576;" xml:space="preserve" width="512px" height="512px">
<g>
	<path d="M130.151,247.487c-62.384-62.384-62.384-163.89,0-226.274L108.938,0c-74.081,74.081-74.081,194.619,0,268.7   L130.151,247.487z" fill="#0d2818"/>
	<path d="M356.425,247.487l21.213,21.213c74.081-74.081,74.081-194.619,0-268.7l-21.213,21.213   C418.809,83.597,418.809,185.103,356.425,247.487z" fill="#0d2818"/>
	<path d="M158.436,219.203l21.213-21.213c-16.967-16.967-26.312-39.568-26.312-63.64s9.344-46.672,26.312-63.64l-21.213-21.213   c-22.634,22.633-35.099,52.768-35.099,84.853S135.802,196.569,158.436,219.203z" fill="#0d2818"/>
	<path d="M328.141,219.203c22.634-22.633,35.099-52.768,35.099-84.853s-12.465-62.219-35.099-84.853L306.928,70.71   c16.967,16.967,26.312,39.568,26.312,63.64s-9.344,46.672-26.312,63.64L328.141,219.203z" fill="#0d2818"/>
	<path d="M257.97,166.121c11.993-5.552,20.318-17.686,20.318-31.771c0-19.33-15.67-35-35-35c-19.33,0-35,15.67-35,35   c0,14.085,8.324,26.219,20.317,31.771l-84.478,290.455H85.387v30h315.794v-30H342.44L257.97,166.121z M243.287,223.063   l38.591,132.698l-77.188,0.007L243.287,223.063z M195.965,385.77l94.638-0.008l20.594,70.815H175.371L195.965,385.77z" fill="#0d2818"/>
</g>
<g>
</g>
<g>
</g>
<g>
</g>
<g>
</g>
<g>
</g>
<g>
</g>
<g>
</g>
<g>
</g>
<g>
</g>
<g>
</g>
<g>
</g>
<g>
</g>
<g>
</g>
<g>
</g>
<g>
</g>
</svg>
