<?xml version="1.0" encoding="iso-8859-1"?>
<!-- Generator: Adobe Illustrator 19.0.0, SVG Export Plug-In . SVG Version: 6.00 Build 0)  -->
<svg version="1.1" id="Layer_1" xmlns="http://www.w3.org/2000/svg" xmlns:xlink="http://www.w3.org/1999/xlink" x="0px" y="0px"
	 viewBox="0 0 512.64 512.64" style="enable-background:new 0 0 512.64 512.64;" xml:space="preserve">
<g transform="translate(1 1)">
	<g>
		<g>
			<path d="M495.64,123.053L443.587,71c-21.333-21.333-55.467-21.333-76.8,0L262.68,174.253c-21.333,21.333-21.333,55.467,0,76.8
				l0.593,0.593l-53.5,57.434c-1.707,2.56-2.56,5.12-1.707,7.68l4.267,19.627l-19.627-4.267c-2.56,0-5.973,0.853-7.68,2.56
				l-49.493,49.493c-2.56,1.707-3.413,5.12-2.56,7.68l2.56,9.387l-9.387-1.707c-2.56,0-5.973,0.853-7.68,2.56l-4.267,4.267
				c-18.773,17.92-31.573,40.96-37.547,65.707c-1.707,5.973,0.853,12.8,5.12,17.067c3.413,3.413,7.68,5.12,12.8,5.12
				c0.853,0,2.56,0,3.413,0c24.747-6.827,47.787-19.627,65.707-37.547l36.693-36.693c2.56-1.707,3.413-5.12,2.56-7.68l-1.707-9.387
				l9.387,1.707c2.56,0.853,5.973-0.853,7.68-2.56l96.078-99.335l0.348,0.348c10.24,10.24,23.893,16.213,38.4,16.213
				c14.507,0,28.16-5.973,38.4-15.36L495.64,199.853C516.973,178.52,516.973,144.387,495.64,123.053z M208.92,386.733l-17.067-3.413
				c-2.56,0-5.973,0.853-7.68,2.56c-2.56,1.707-3.413,5.12-2.56,7.68l3.413,17.067l-33.28,33.28
				c-16.213,16.213-35.84,28.16-58.027,33.28c0,0,0,0.853-0.853,0c0-0.853,0-0.853,0-1.707c5.973-22.187,17.067-41.813,33.28-58.027
				L127,416.6l16.213,3.413c2.56,0,5.973-0.853,7.68-2.56c2.56-1.707,3.413-5.12,2.56-7.68l-3.413-17.067l43.52-43.52l28.16,5.973
				c2.56,0,5.973-0.853,7.68-2.56c2.56-1.707,3.413-5.12,2.56-7.68l-5.973-28.16l49.493-52.907l26.453,26.453L208.92,386.733z
				 M483.693,187.053L379.587,291.16c-7.68,6.827-16.213,11.093-26.453,11.093c-10.24,0-19.627-4.267-26.453-11.093l-52.053-52.053
				c-14.507-14.507-14.507-37.547,0-52.053L378.733,83.8c7.68-7.68,17.067-11.093,26.453-11.093c9.387,0,18.773,3.413,26.453,9.387
				l52.053,52.053c6.827,7.68,11.093,16.213,11.093,26.453C494.787,170.84,490.52,180.227,483.693,187.053z"/>
			<path d="M422.253,114.52c-10.24-10.24-26.453-10.24-36.693,0l-7.68,7.68c-5.12,5.12-7.68,11.947-7.68,18.773
				c0,7.68,2.56,13.653,7.68,18.773l27.307,27.307c5.12,5.12,11.947,7.68,18.773,7.68c7.68,0,13.653-2.56,18.773-7.68l6.827-8.533
				c10.24-10.24,10.24-26.453,0-36.693L422.253,114.52z M439.32,167.427l-7.68,7.68c-3.413,3.413-9.387,3.413-12.8,0L391.533,147.8
				c-3.413-3.413-3.413-9.387,0-12.8l7.68-7.68c1.707-1.707,3.413-2.56,5.973-2.56c1.707,0,4.267,0.853,5.973,2.56l28.16,27.307
				C442.733,158.04,442.733,164.013,439.32,167.427z"/>
			<path d="M263.533,33.453c5.12,0,8.533-3.413,8.533-8.533s-3.413-8.533-8.533-8.533C115.053,16.387-1,136.707-1,289.453
				c0,5.12,3.413,8.533,8.533,8.533s8.533-3.413,8.533-8.533C16.067,146.093,124.44,33.453,263.533,33.453z"/>
			<path d="M263.533,76.12c5.12,0,8.533-3.413,8.533-8.533s-3.413-8.533-8.533-8.533c-124.587,0-221.867,101.547-221.867,230.4
				c0,5.12,3.413,8.533,8.533,8.533s8.533-3.413,8.533-8.533C58.733,169.987,148.333,76.12,263.533,76.12z"/>
			<path d="M263.533,101.72c-98.987,0-179.2,84.48-179.2,187.733c0,5.12,3.413,8.533,8.533,8.533c5.12,0,8.533-3.413,8.533-8.533
				c0-93.867,72.533-170.667,162.133-170.667c5.12,0,8.533-3.413,8.533-8.533C272.067,105.133,268.653,101.72,263.533,101.72z"/>
		</g>
	</g>
</g>
<g>
</g>
<g>
</g>
<g>
</g>
<g>
</g>
<g>
</g>
<g>
</g>
<g>
</g>
<g>
</g>
<g>
</g>
<g>
</g>
<g>
</g>
<g>
</g>
<g>
</g>
<g>
</g>
<g>
</g>
</svg>
